<mxfile host="65bd71144e">
    <diagram id="QSWu9Wnhy0qAhUBLh6C_" name="第 1 页">
        <mxGraphModel dx="1538" dy="2064" grid="1" gridSize="10" guides="1" tooltips="1" connect="1" arrows="1" fold="1" page="1" pageScale="1" pageWidth="827" pageHeight="1169" math="0" shadow="0">
            <root>
                <mxCell id="0"/>
                <mxCell id="1" parent="0"/>
                <mxCell id="10" value="wap成员列表组件主流程图" style="swimlane;childLayout=stackLayout;resizeParent=1;resizeParentMax=0;startSize=20;shadow=0;rounded=0;" parent="1" vertex="1">
                    <mxGeometry x="120" y="-120" width="645" height="600" as="geometry"/>
                </mxCell>
                <mxCell id="11" value="视图" style="swimlane;startSize=20;" parent="10" vertex="1">
                    <mxGeometry y="20" width="270" height="580" as="geometry"/>
                </mxCell>
                <mxCell id="100" value="获取列表数据" style="rounded=0;whiteSpace=wrap;html=1;shadow=0;sketch=0;hachureGap=4;fontFamily=Architects Daughter;fontSource=https%3A%2F%2Ffonts.googleapis.com%2Fcss%3Ffamily%3DArchitects%2BDaughter;fontSize=12;strokeColor=default;fillColor=none;" vertex="1" parent="11">
                    <mxGeometry x="40" y="100" width="80" height="30" as="geometry"/>
                </mxCell>
                <mxCell id="104" value="视图" style="swimlane;startSize=20;" vertex="1" parent="11">
                    <mxGeometry width="270" height="580" as="geometry"/>
                </mxCell>
                <mxCell id="109" value="" style="rounded=0;whiteSpace=wrap;html=1;shadow=0;sketch=0;hachureGap=4;fontFamily=Architects Daughter;fontSource=https%3A%2F%2Ffonts.googleapis.com%2Fcss%3Ffamily%3DArchitects%2BDaughter;fontSize=12;strokeColor=default;fillColor=none;" vertex="1" parent="104">
                    <mxGeometry x="40" y="100" width="80" height="30" as="geometry"/>
                </mxCell>
                <mxCell id="120" style="edgeStyle=none;sketch=1;hachureGap=4;orthogonalLoop=1;jettySize=auto;html=1;exitX=0.5;exitY=1;exitDx=0;exitDy=0;entryX=0.5;entryY=0;entryDx=0;entryDy=0;dashed=1;fontFamily=Architects Daughter;fontSource=https%3A%2F%2Ffonts.googleapis.com%2Fcss%3Ffamily%3DArchitects%2BDaughter;fontSize=12;endArrow=classicThin;endFill=1;startSize=14;endSize=14;sourcePerimeterSpacing=8;targetPerimeterSpacing=8;" edge="1" parent="104" source="117" target="118">
                    <mxGeometry relative="1" as="geometry"/>
                </mxCell>
                <mxCell id="139" style="edgeStyle=none;sketch=1;hachureGap=4;orthogonalLoop=1;jettySize=auto;html=1;exitX=0.5;exitY=0;exitDx=0;exitDy=0;entryX=0.5;entryY=1;entryDx=0;entryDy=0;dashed=1;fontFamily=Architects Daughter;fontSource=https%3A%2F%2Ffonts.googleapis.com%2Fcss%3Ffamily%3DArchitects%2BDaughter;fontSize=12;endArrow=classicThin;endFill=1;startSize=14;endSize=14;sourcePerimeterSpacing=8;targetPerimeterSpacing=8;" edge="1" parent="104" source="117" target="109">
                    <mxGeometry relative="1" as="geometry"/>
                </mxCell>
                <mxCell id="117" value="监听事件" style="rounded=0;whiteSpace=wrap;html=1;shadow=0;sketch=0;hachureGap=4;fontFamily=Architects Daughter;fontSource=https%3A%2F%2Ffonts.googleapis.com%2Fcss%3Ffamily%3DArchitects%2BDaughter;fontSize=12;strokeColor=default;fillColor=none;" vertex="1" parent="104">
                    <mxGeometry x="40" y="180" width="80" height="30" as="geometry"/>
                </mxCell>
                <mxCell id="118" value="更新视图" style="rounded=0;whiteSpace=wrap;html=1;shadow=0;sketch=0;hachureGap=4;fontFamily=Architects Daughter;fontSource=https%3A%2F%2Ffonts.googleapis.com%2Fcss%3Ffamily%3DArchitects%2BDaughter;fontSize=12;strokeColor=default;fillColor=none;" vertex="1" parent="104">
                    <mxGeometry x="40" y="280" width="80" height="30" as="geometry"/>
                </mxCell>
                <mxCell id="131" style="edgeStyle=none;sketch=1;hachureGap=4;orthogonalLoop=1;jettySize=auto;html=1;exitX=0.5;exitY=1;exitDx=0;exitDy=0;entryX=0.5;entryY=0;entryDx=0;entryDy=0;dashed=1;fontFamily=Architects Daughter;fontSource=https%3A%2F%2Ffonts.googleapis.com%2Fcss%3Ffamily%3DArchitects%2BDaughter;fontSize=12;endArrow=classicThin;endFill=1;startSize=14;endSize=14;sourcePerimeterSpacing=8;targetPerimeterSpacing=8;" edge="1" parent="104" source="130" target="109">
                    <mxGeometry relative="1" as="geometry"/>
                </mxCell>
                <mxCell id="130" value="开始" style="rounded=0;whiteSpace=wrap;html=1;shadow=0;sketch=0;hachureGap=4;fontFamily=Architects Daughter;fontSource=https%3A%2F%2Ffonts.googleapis.com%2Fcss%3Ffamily%3DArchitects%2BDaughter;fontSize=12;strokeColor=default;fillColor=none;" vertex="1" parent="104">
                    <mxGeometry x="40" y="30" width="80" height="30" as="geometry"/>
                </mxCell>
                <mxCell id="66" value="sdk" style="swimlane;startSize=20;" parent="10" vertex="1">
                    <mxGeometry x="270" y="20" width="120" height="580" as="geometry">
                        <mxRectangle x="270" y="20" width="30" height="580" as="alternateBounds"/>
                    </mxGeometry>
                </mxCell>
                <mxCell id="12" value="后端" style="swimlane;startSize=20;" parent="10" vertex="1">
                    <mxGeometry x="390" y="20" width="135" height="580" as="geometry"/>
                </mxCell>
                <mxCell id="135" value="接口调用" style="rounded=0;whiteSpace=wrap;html=1;shadow=0;sketch=0;hachureGap=4;fontFamily=Architects Daughter;fontSource=https%3A%2F%2Ffonts.googleapis.com%2Fcss%3Ffamily%3DArchitects%2BDaughter;fontSize=12;strokeColor=default;fillColor=none;" vertex="1" parent="12">
                    <mxGeometry x="30" y="100" width="80" height="30" as="geometry"/>
                </mxCell>
                <mxCell id="13" value="pass" style="swimlane;startSize=20;" parent="10" vertex="1">
                    <mxGeometry x="525" y="20" width="120" height="580" as="geometry"/>
                </mxCell>
                <mxCell id="89" value="派发事件" style="whiteSpace=wrap;html=1;rounded=0;shadow=0;sketch=1;hachureGap=4;fontFamily=Architects Daughter;fontSource=https%3A%2F%2Ffonts.googleapis.com%2Fcss%3Ffamily%3DArchitects%2BDaughter;fontSize=12;" vertex="1" parent="13">
                    <mxGeometry x="30" y="175" width="60" height="30" as="geometry"/>
                </mxCell>
                <mxCell id="98" style="edgeStyle=none;sketch=1;hachureGap=4;orthogonalLoop=1;jettySize=auto;html=1;dashed=1;fontFamily=Architects Daughter;fontSource=https%3A%2F%2Ffonts.googleapis.com%2Fcss%3Ffamily%3DArchitects%2BDaughter;fontSize=12;endArrow=classicThin;endFill=1;startSize=14;endSize=14;sourcePerimeterSpacing=8;targetPerimeterSpacing=8;" edge="1" parent="10" source="89">
                    <mxGeometry relative="1" as="geometry">
                        <mxPoint x="120" y="210" as="targetPoint"/>
                    </mxGeometry>
                </mxCell>
                <mxCell id="136" style="edgeStyle=none;sketch=1;hachureGap=4;orthogonalLoop=1;jettySize=auto;html=1;dashed=1;fontFamily=Architects Daughter;fontSource=https%3A%2F%2Ffonts.googleapis.com%2Fcss%3Ffamily%3DArchitects%2BDaughter;fontSize=12;endArrow=classicThin;endFill=1;startSize=14;endSize=14;sourcePerimeterSpacing=8;targetPerimeterSpacing=8;" edge="1" parent="10" source="109" target="135">
                    <mxGeometry relative="1" as="geometry"/>
                </mxCell>
                <mxCell id="137" style="edgeStyle=none;sketch=1;hachureGap=4;orthogonalLoop=1;jettySize=auto;html=1;exitX=0.5;exitY=1;exitDx=0;exitDy=0;entryX=1;entryY=0.5;entryDx=0;entryDy=0;dashed=1;fontFamily=Architects Daughter;fontSource=https%3A%2F%2Ffonts.googleapis.com%2Fcss%3Ffamily%3DArchitects%2BDaughter;fontSize=12;endArrow=classicThin;endFill=1;startSize=14;endSize=14;sourcePerimeterSpacing=8;targetPerimeterSpacing=8;" edge="1" parent="10" source="135" target="118">
                    <mxGeometry relative="1" as="geometry">
                        <Array as="points">
                            <mxPoint x="460" y="320"/>
                        </Array>
                    </mxGeometry>
                </mxCell>
            </root>
        </mxGraphModel>
    </diagram>
</mxfile>